<mxfile host="app.diagrams.net" modified="2020-12-03T02:51:07.193Z" agent="5.0 (Windows NT 10.0; WOW64) AppleWebKit/537.36 (KHTML, like Gecko) Chrome/78.0.3904.108 Safari/537.36" etag="IcxkOfwumJc4uiHjtx2g" version="13.10.6" type="github">
  <diagram name="Page-1" id="74b105a0-9070-1c63-61bc-23e55f88626e">
    <mxGraphModel dx="2245" dy="1380" grid="1" gridSize="10" guides="1" tooltips="1" connect="1" arrows="1" fold="1" page="1" pageScale="1.5" pageWidth="1169" pageHeight="826" background="none" math="0" shadow="0">
      <root>
        <mxCell id="0" style=";html=1;" />
        <mxCell id="1" style=";html=1;" parent="0" />
        <mxCell id="az9H7xqMgQHj3aL3T-Eh-1" value="用户" style="outlineConnect=0;fontColor=#232F3E;gradientColor=none;fillColor=#232F3E;strokeColor=none;dashed=0;verticalLabelPosition=bottom;verticalAlign=top;align=center;html=1;fontSize=12;fontStyle=0;aspect=fixed;pointerEvents=1;shape=mxgraph.aws4.user;" vertex="1" parent="1">
          <mxGeometry x="320" y="466" width="78" height="78" as="geometry" />
        </mxCell>
        <mxCell id="10b056a9c633e61c-30" value="Title" style="text;strokeColor=none;fillColor=none;html=1;fontSize=24;fontStyle=1;verticalAlign=middle;align=center;" parent="1" vertex="1">
          <mxGeometry x="80" y="40" width="1590" height="40" as="geometry" />
        </mxCell>
        <mxCell id="az9H7xqMgQHj3aL3T-Eh-3" value="" style="endArrow=classic;html=1;strokeWidth=2;" edge="1" parent="1" source="az9H7xqMgQHj3aL3T-Eh-1" target="az9H7xqMgQHj3aL3T-Eh-11">
          <mxGeometry width="50" height="50" relative="1" as="geometry">
            <mxPoint x="550" y="520" as="sourcePoint" />
            <mxPoint x="630" y="505" as="targetPoint" />
          </mxGeometry>
        </mxCell>
        <mxCell id="az9H7xqMgQHj3aL3T-Eh-10" value="" style="group" vertex="1" connectable="0" parent="1">
          <mxGeometry x="790" y="460" width="150" height="90" as="geometry" />
        </mxCell>
        <mxCell id="az9H7xqMgQHj3aL3T-Eh-9" value="数据库服务器&#xa;" style="strokeWidth=2;dashed=0;align=center;fontSize=12;shape=rect;verticalLabelPosition=bottom;verticalAlign=top;fillColor=#c0f5a9" vertex="1" parent="az9H7xqMgQHj3aL3T-Eh-10">
          <mxGeometry width="150" height="90" as="geometry" />
        </mxCell>
        <mxCell id="az9H7xqMgQHj3aL3T-Eh-4" value="SQL Server" style="strokeWidth=2;html=1;shape=mxgraph.flowchart.database;whiteSpace=wrap;" vertex="1" parent="az9H7xqMgQHj3aL3T-Eh-10">
          <mxGeometry x="45" y="15" width="60" height="60" as="geometry" />
        </mxCell>
        <mxCell id="az9H7xqMgQHj3aL3T-Eh-13" value="" style="group" vertex="1" connectable="0" parent="1">
          <mxGeometry x="532" y="460" width="150" height="90" as="geometry" />
        </mxCell>
        <mxCell id="az9H7xqMgQHj3aL3T-Eh-11" value="学位论文服务器" style="strokeWidth=2;dashed=0;align=center;fontSize=12;shape=rect;verticalLabelPosition=bottom;verticalAlign=top;fillColor=#c0f5a9" vertex="1" parent="az9H7xqMgQHj3aL3T-Eh-13">
          <mxGeometry width="150" height="90" as="geometry" />
        </mxCell>
        <mxCell id="az9H7xqMgQHj3aL3T-Eh-12" value="" style="points=[];aspect=fixed;html=1;align=center;shadow=0;dashed=0;image;image=img/lib/allied_telesis/computer_and_terminals/Server_Desktop.svg;" vertex="1" parent="az9H7xqMgQHj3aL3T-Eh-13">
          <mxGeometry x="42.650000000000034" y="4" width="64.69" height="82" as="geometry" />
        </mxCell>
        <mxCell id="az9H7xqMgQHj3aL3T-Eh-14" value="" style="endArrow=classic;startArrow=classic;html=1;entryX=0;entryY=0.5;entryDx=0;entryDy=0;exitX=1;exitY=0.5;exitDx=0;exitDy=0;strokeWidth=2;" edge="1" parent="1" source="az9H7xqMgQHj3aL3T-Eh-11" target="az9H7xqMgQHj3aL3T-Eh-9">
          <mxGeometry width="50" height="50" relative="1" as="geometry">
            <mxPoint x="680" y="540" as="sourcePoint" />
            <mxPoint x="730" y="490" as="targetPoint" />
          </mxGeometry>
        </mxCell>
        <mxCell id="az9H7xqMgQHj3aL3T-Eh-21" value="" style="group" vertex="1" connectable="0" parent="1">
          <mxGeometry x="1060" y="460" width="150" height="90" as="geometry" />
        </mxCell>
        <mxCell id="az9H7xqMgQHj3aL3T-Eh-15" value="管理员" style="strokeWidth=2;dashed=0;align=center;fontSize=12;shape=rect;verticalLabelPosition=bottom;verticalAlign=top;fillColor=#c0f5a9" vertex="1" parent="az9H7xqMgQHj3aL3T-Eh-21">
          <mxGeometry width="150" height="90" as="geometry" />
        </mxCell>
        <mxCell id="az9H7xqMgQHj3aL3T-Eh-16" value="" style="points=[[0.35,0,0],[0.98,0.51,0],[1,0.71,0],[0.67,1,0],[0,0.795,0],[0,0.65,0]];verticalLabelPosition=bottom;html=1;verticalAlign=top;aspect=fixed;align=center;pointerEvents=1;shape=mxgraph.cisco19.user;fillColor=#005073;strokeColor=none;" vertex="1" parent="az9H7xqMgQHj3aL3T-Eh-21">
          <mxGeometry x="15" y="20" width="50" height="50" as="geometry" />
        </mxCell>
        <mxCell id="az9H7xqMgQHj3aL3T-Eh-17" value="" style="points=[[0.35,0,0],[0.98,0.51,0],[1,0.71,0],[0.67,1,0],[0,0.795,0],[0,0.65,0]];verticalLabelPosition=bottom;html=1;verticalAlign=top;aspect=fixed;align=center;pointerEvents=1;shape=mxgraph.cisco19.user;fillColor=#005073;strokeColor=none;" vertex="1" parent="az9H7xqMgQHj3aL3T-Eh-21">
          <mxGeometry x="83" y="20" width="50" height="50" as="geometry" />
        </mxCell>
        <mxCell id="az9H7xqMgQHj3aL3T-Eh-23" style="edgeStyle=orthogonalEdgeStyle;rounded=0;html=1;endArrow=block;endFill=1;jettySize=auto;orthogonalLoop=1;fontSize=12;strokeWidth=2;startArrow=none;startFill=0;exitX=0;exitY=0.5;exitDx=0;exitDy=0;entryX=0.5;entryY=0;entryDx=0;entryDy=0;" edge="1" parent="1" source="az9H7xqMgQHj3aL3T-Eh-15" target="az9H7xqMgQHj3aL3T-Eh-11">
          <mxGeometry relative="1" as="geometry">
            <Array as="points">
              <mxPoint x="1010" y="505" />
              <mxPoint x="1010" y="420" />
              <mxPoint x="607" y="420" />
            </Array>
            <mxPoint x="1667" y="145" as="sourcePoint" />
            <mxPoint x="407" y="220" as="targetPoint" />
          </mxGeometry>
        </mxCell>
        <mxCell id="az9H7xqMgQHj3aL3T-Eh-24" value="Title" style="text;strokeColor=none;fillColor=none;html=1;fontSize=24;fontStyle=1;verticalAlign=middle;align=center;" vertex="1" parent="1">
          <mxGeometry x="70" y="810" width="1590" height="40" as="geometry" />
        </mxCell>
      </root>
    </mxGraphModel>
  </diagram>
</mxfile>
